<svg xmlns="http://www.w3.org/2000/svg" width="1200" height="900" viewBox="0 0 1200 900" role="img" aria-labelledby="title desc">
  <title id="title">API-Schnittstellen und Integration</title>
  <desc id="desc">Illustration vernetzter Knoten, die Datenströme und Schnittstellen darstellen.</desc>
  <defs>
    <linearGradient id="bg" x1="0" y1="0" x2="1" y2="1">
      <stop offset="0%" stop-color="#f1f8e9" />
      <stop offset="100%" stop-color="#dcedc8" />
    </linearGradient>
  </defs>
  <rect width="1200" height="900" fill="url(#bg)" rx="48" />
  <g stroke="#558b2f" stroke-width="14" stroke-linecap="round" stroke-linejoin="round" fill="#7cb342" opacity="0.9">
    <circle cx="320" cy="280" r="52" />
    <circle cx="520" cy="200" r="46" />
    <circle cx="760" cy="240" r="56" />
    <circle cx="900" cy="420" r="48" />
    <circle cx="680" cy="520" r="52" />
    <circle cx="420" cy="520" r="46" />
    <circle cx="260" cy="420" r="42" />
    <line x1="320" y1="280" x2="520" y2="200" />
    <line x1="520" y1="200" x2="760" y2="240" />
    <line x1="760" y1="240" x2="900" y2="420" />
    <line x1="900" y1="420" x2="680" y2="520" />
    <line x1="680" y1="520" x2="420" y2="520" />
    <line x1="420" y1="520" x2="260" y2="420" />
    <line x1="260" y1="420" x2="320" y2="280" />
    <line x1="420" y1="520" x2="520" y2="200" />
    <line x1="680" y1="520" x2="760" y2="240" />
    <line x1="320" y1="280" x2="680" y2="520" />
  </g>
  <g stroke="#9ccc65" stroke-width="10" stroke-dasharray="18 20" fill="none">
    <path d="M220 660h760" />
    <path d="M220 140h760" />
  </g>
</svg>
