<svg xmlns="http://www.w3.org/2000/svg" width="1200" height="900" viewBox="0 0 1200 900" role="img" aria-labelledby="title desc">
  <title id="title">Barrierefreie Benutzererfahrung</title>
  <desc id="desc">Illustration einer Person in einem Rollstuhl vor einem großen Bildschirm mit zugänglichen Steuerelementen.</desc>
  <defs>
    <linearGradient id="bg" x1="0" x2="1" y1="0" y2="1">
      <stop offset="0%" stop-color="#e0f2f1" />
      <stop offset="100%" stop-color="#80cbc4" />
    </linearGradient>
    <linearGradient id="screen" x1="0" x2="1">
      <stop offset="0%" stop-color="#ffffff" stop-opacity="0.95" />
      <stop offset="100%" stop-color="#c8e6c9" stop-opacity="0.95" />
    </linearGradient>
  </defs>
  <rect width="1200" height="900" fill="url(#bg)" rx="48" />
  <rect x="250" y="160" width="700" height="420" rx="28" fill="url(#screen)" />
  <rect x="300" y="220" width="240" height="60" rx="18" fill="#26a69a" opacity="0.8" />
  <circle cx="355" cy="250" r="16" fill="#ffffff" />
  <rect x="380" y="238" width="130" height="24" rx="12" fill="#ffffff" />
  <rect x="300" y="320" width="600" height="40" rx="16" fill="#00796b" opacity="0.35" />
  <rect x="300" y="380" width="540" height="40" rx="16" fill="#00796b" opacity="0.25" />
  <rect x="300" y="440" width="480" height="40" rx="16" fill="#00796b" opacity="0.2" />
  <circle cx="780" cy="268" r="36" fill="#26a69a" opacity="0.7" />
  <path d="M760 268h40" stroke="#ffffff" stroke-width="6" stroke-linecap="round" />
  <path d="M780 248v40" stroke="#ffffff" stroke-width="6" stroke-linecap="round" />
  <g transform="translate(520 520)">
    <circle cx="0" cy="140" r="110" fill="none" stroke="#00695c" stroke-width="16" />
    <circle cx="-80" cy="80" r="42" fill="#004d40" />
    <rect x="-60" y="10" width="120" height="150" rx="36" fill="#004d40" />
    <rect x="-90" y="140" width="180" height="26" fill="#004d40" />
    <rect x="-12" y="-40" width="24" height="120" rx="12" fill="#004d40" />
    <circle cx="0" cy="-80" r="36" fill="#004d40" />
    <path d="M90 120c60 0 110 50 110 110" fill="none" stroke="#004d40" stroke-width="18" stroke-linecap="round" />
    <path d="M120 160c36 0 70 34 70 70" fill="none" stroke="#004d40" stroke-width="12" stroke-linecap="round" />
  </g>
</svg>
