<svg xmlns="http://www.w3.org/2000/svg" width="1200" height="900" viewBox="0 0 1200 900" role="img" aria-labelledby="title desc">
  <title id="title">Data-Science und Analysen</title>
  <desc id="desc">Illustration eines Dashboards mit Diagrammen, Datenpunkten und Trendlinien.</desc>
  <defs>
    <linearGradient id="bg" x1="0" y1="0" x2="1" y2="1">
      <stop offset="0%" stop-color="#ede7f6" />
      <stop offset="100%" stop-color="#d1c4e9" />
    </linearGradient>
  </defs>
  <rect width="1200" height="900" fill="url(#bg)" rx="48" />
  <rect x="200" y="180" width="800" height="520" rx="40" fill="#ffffff" opacity="0.95" />
  <g transform="translate(260 240)">
    <rect x="0" y="0" width="680" height="140" rx="24" fill="#b39ddb" opacity="0.35" />
    <path d="M40 110c60-80 120-40 180-20s120 40 180-10 120-60 180-20" fill="none" stroke="#673ab7" stroke-width="16" stroke-linecap="round" stroke-linejoin="round" />
    <circle cx="220" cy="80" r="20" fill="#512da8" />
    <circle cx="400" cy="60" r="18" fill="#512da8" />
    <circle cx="580" cy="90" r="22" fill="#512da8" />
  </g>
  <g transform="translate(260 420)">
    <rect x="0" y="0" width="360" height="180" rx="24" fill="#ede7f6" />
    <path d="M60 140v-80l60 40 60-80 60 60 60-20" fill="none" stroke="#7e57c2" stroke-width="14" stroke-linecap="round" stroke-linejoin="round" />
  </g>
  <g transform="translate(660 420)">
    <rect x="0" y="0" width="280" height="180" rx="24" fill="#ede7f6" />
    <rect x="60" y="60" width="48" height="80" rx="12" fill="#9575cd" />
    <rect x="130" y="40" width="48" height="100" rx="12" fill="#7e57c2" />
    <rect x="200" y="20" width="48" height="120" rx="12" fill="#5e35b1" />
  </g>
</svg>
