<svg xmlns="http://www.w3.org/2000/svg" width="1200" height="900" viewBox="0 0 1200 900" role="img" aria-labelledby="title desc">
  <title id="title">Künstliche Intelligenz und Machine Learning</title>
  <desc id="desc">Illustration eines stilisierten Gehirns mit Netzwerkverbindungen und Datenströmen.</desc>
  <defs>
    <linearGradient id="bg" x1="0" y1="0" x2="1" y2="1">
      <stop offset="0%" stop-color="#e0f7fa" />
      <stop offset="100%" stop-color="#b2ebf2" />
    </linearGradient>
  </defs>
  <rect width="1200" height="900" fill="url(#bg)" rx="48" />
  <g transform="translate(320 220)">
    <path d="M280 40c140 0 220 120 220 220s-80 220-220 220-220-120-220-220 80-220 220-220z" fill="#26c6da" opacity="0.55" />
    <path d="M240 0c160 0 260 120 260 260s-100 260-260 260S0 400 0 260 80 0 240 0z" fill="none" stroke="#00838f" stroke-width="18" stroke-dasharray="32 28" />
    <g fill="#006064">
      <circle cx="220" cy="120" r="28" />
      <circle cx="340" cy="160" r="24" />
      <circle cx="380" cy="280" r="26" />
      <circle cx="180" cy="260" r="24" />
      <circle cx="260" cy="360" r="22" />
      <circle cx="140" cy="160" r="22" />
    </g>
    <g stroke="#004d60" stroke-width="12" stroke-linecap="round">
      <path d="M220 120l120 40" />
      <path d="M340 160l40 120" />
      <path d="M220 120l-80 40" />
      <path d="M180 260l80 100" />
      <path d="M140 160l40 100" />
      <path d="M260 360l120-80" />
    </g>
  </g>
  <g stroke="#00acc1" stroke-width="12" stroke-dasharray="18 22" fill="none" stroke-linecap="round">
    <path d="M240 200c60-60 160-60 220 0" />
    <path d="M240 680c60 60 160 60 220 0" />
    <path d="M760 200c60-60 160-60 220 0" />
    <path d="M760 680c60 60 160 60 220 0" />
  </g>
</svg>
