<svg xmlns="http://www.w3.org/2000/svg" width="1200" height="900" viewBox="0 0 1200 900" role="img" aria-labelledby="title desc">
  <title id="title">Softwarearchitektur und Planung</title>
  <desc id="desc">Illustration eines Architekturplans mit Modulen, Verbindungen und Diagrammen.</desc>
  <defs>
    <linearGradient id="bg" x1="0" y1="0" x2="1" y2="1">
      <stop offset="0%" stop-color="#e3f2fd" />
      <stop offset="100%" stop-color="#bbdefb" />
    </linearGradient>
  </defs>
  <rect width="1200" height="900" fill="url(#bg)" rx="48" />
  <rect x="220" y="180" width="760" height="520" rx="32" fill="#ffffff" opacity="0.95" />
  <g stroke="#1976d2" stroke-width="8" fill="none">
    <rect x="320" y="260" width="160" height="120" rx="20" />
    <rect x="520" y="260" width="160" height="120" rx="20" />
    <rect x="720" y="260" width="160" height="120" rx="20" />
    <rect x="420" y="440" width="360" height="160" rx="28" />
    <path d="M480 320h40" />
    <path d="M680 320h40" />
    <path d="M400 320l-60 120" />
    <path d="M800 320l60 120" />
    <path d="M500 520v80" />
    <path d="M700 520v80" />
  </g>
  <g fill="#1976d2">
    <circle cx="600" cy="520" r="24" />
    <path d="M600 220l40 40h-80z" />
    <path d="M920 520l-40 40-40-40z" />
  </g>
  <g stroke="#64b5f6" stroke-width="6" stroke-dasharray="16 18">
    <path d="M320 640h560" />
    <path d="M320 220h560" />
  </g>
</svg>
