<svg xmlns="http://www.w3.org/2000/svg" width="1200" height="900" viewBox="0 0 1200 900" role="img" aria-labelledby="title desc">
  <title id="title">Moderne Web-App Entwicklung</title>
  <desc id="desc">Illustration eines Laptops mit verschiedenen Oberflächenelementen und Cloud-Verbindung.</desc>
  <defs>
    <linearGradient id="bg" x1="0" y1="0" x2="1" y2="1">
      <stop offset="0%" stop-color="#e8eaf6" />
      <stop offset="100%" stop-color="#c5cae9" />
    </linearGradient>
  </defs>
  <rect width="1200" height="900" fill="url(#bg)" rx="48" />
  <g transform="translate(200 220)">
    <rect x="80" y="0" width="720" height="420" rx="32" fill="#ffffff" opacity="0.95" />
    <rect x="80" y="0" width="720" height="72" rx="32" fill="#5c6bc0" />
    <circle cx="132" cy="36" r="12" fill="#c5cae9" />
    <circle cx="170" cy="36" r="12" fill="#c5cae9" />
    <circle cx="208" cy="36" r="12" fill="#c5cae9" />
    <rect x="160" y="140" width="520" height="210" rx="24" fill="#e8eaf6" />
    <rect x="200" y="180" width="280" height="80" rx="20" fill="#5c6bc0" opacity="0.9" />
    <rect x="520" y="180" width="120" height="80" rx="20" fill="#9fa8da" />
    <rect x="200" y="290" width="180" height="32" rx="16" fill="#9fa8da" />
    <rect x="400" y="290" width="180" height="32" rx="16" fill="#9fa8da" opacity="0.7" />
    <path d="M0 480h880l-120 120H120z" fill="#303f9f" />
    <rect x="200" y="520" width="480" height="28" rx="14" fill="#1a237e" />
  </g>
  <g transform="translate(820 200)">
    <path d="M0 120c0-66 54-120 120-120s120 54 120 120-54 120-120 120" fill="none" stroke="#3949ab" stroke-width="20" stroke-linecap="round" />
    <path d="M120 240v120" stroke="#3949ab" stroke-width="18" stroke-linecap="round" />
    <circle cx="120" cy="380" r="28" fill="#3949ab" />
  </g>
  <path d="M820 280c40-32 100-32 140 0" fill="none" stroke="#1a237e" stroke-width="18" stroke-linecap="round" stroke-dasharray="24 22" />
</svg>
