<?xml version="1.0" encoding="UTF-8" standalone="no"?>
<!-- Created with Inkscape (http://www.inkscape.org/) by Marsupilami -->
<svg
   xmlns:svg="http://www.w3.org/2000/svg"
   xmlns="http://www.w3.org/2000/svg"
   version="1.0"
   width="1024"
   height="68"
   viewBox="0 0 164.495 10.89125"
   id="svg2870">
  <defs
     id="defs2872" />
  <g
     transform="translate(-292.7525,-526.91656)"
     id="layer1">
    <path
       d="M 3.25,0 C 0.80749994,0 0,1.9075 0,2.875 C 0,5.5775 2.37875,5.87375 2.8125,6 C 4.5437499,6.5225002 5.625,6.4875 5.625,7.90625 C 5.6249998,8.7712502 4.9,9.4375 4.0625,9.4375 C 2.6474998,9.4375 1.735,8.47125 1.5625,7.09375 L 0.09375,7.09375 L 0.09375,10.65625 L 1.59375,10.65625 L 1.59375,10 C 2.3425,10.62375 3.2525,10.90625 4.21875,10.90625 C 6.1250001,10.90625 7.5,9.6075 7.5,7.65625 C 7.4999999,5.4024998 6.13375,4.8875 4.71875,4.46875 C 3.3025002,4.0525002 1.875,3.8425 1.875,2.84375 C 1.875,1.9499999 2.49375,1.4375 3.34375,1.4375 C 3.9224999,1.4375 4.3875,1.65625 4.75,2 C 5.0962499,2.3325 5.35375,2.79375 5.46875,3.34375 L 6.90625,3.34375 L 6.90625,0.21875 L 5.375,0.21875 L 5.375,0.875 C 4.8100001,0.33875 4.05875,0 3.25,0 z M 13.625,0 C 11.12625,0 8.34375,1.705 8.34375,5.375 C 8.3437496,8.4925001 10.6525,10.90625 13.65625,10.90625 C 15.925,10.90625 17.73625,9.68375 18.34375,7.1875 L 16.625,7.1875 C 16.04625,8.3412498 15.2175,9.15625 13.65625,9.15625 C 11.44625,9.1562503 10.21875,7.43375 10.21875,5.4375 C 10.21875,3.4299998 11.47625,1.71875 13.65625,1.71875 C 14.24875,1.71875 14.85375,1.92 15.34375,2.25 C 15.835,2.5712501 16.23125,3.005 16.375,3.59375 L 17.875,3.59375 L 17.875,0.21875 L 16.375,0.21875 L 16.375,0.90625 C 15.53625,0.11375002 13.95625,0 13.625,0 z M 107.9375,0 C 104.8925,0 102.53125,2.59375 102.53125,5.40625 C 102.53125,8.5975001 104.655,10.90625 107.875,10.90625 C 109.03125,10.90625 110.19375,10.415 111.03125,9.5625 L 111.03125,10.65625 L 112.5625,10.65625 L 112.5625,7.25 L 113.6875,7.25 L 113.6875,5.71875 L 108.625,5.71875 L 108.625,7.25 L 111.03125,7.25 C 110.4675,8.5824999 109.40125,9.15625 108,9.15625 C 105.7325,9.1562503 104.40625,7.5675 104.40625,5.375 C 104.40625,3.3487501 105.8725,1.71875 107.9375,1.71875 C 108.57375,1.71875 109.265,1.9175 109.8125,2.28125 C 110.3625,2.62625 110.7775,3.15375 110.875,3.84375 L 112.34375,3.84375 L 112.34375,0.21875 L 110.8125,0.21875 L 110.8125,0.9375 C 109.88875,0.285 109.10625,0 107.9375,0 z M 19.40625,0.21875 L 19.40625,1.65625 L 20.53125,1.65625 L 20.53125,9.25 L 19.40625,9.25 L 19.40625,10.65625 L 23.53125,10.65625 L 23.53125,9.25 L 22.40625,9.25 L 22.40625,5.9375 L 26.125,5.9375 L 26.125,9.25 L 25.03125,9.25 L 25.03125,10.65625 L 29.125,10.65625 L 29.125,9.25 L 28,9.25 L 28,1.65625 L 29.125,1.65625 L 29.125,0.21875 L 25.03125,0.21875 L 25.03125,1.65625 L 26.125,1.65625 L 26.125,4.28125 L 22.40625,4.28125 L 22.40625,1.65625 L 23.53125,1.65625 L 23.53125,0.21875 L 19.40625,0.21875 z M 32.625,0.21875 L 32.625,1.65625 L 33.78125,1.65625 L 31.1875,9.25 L 30.3125,9.25 L 30.3125,10.65625 L 34.0625,10.65625 L 34.0625,9.25 L 32.9375,9.25 L 33.65625,7.21875 L 36.8125,7.21875 L 37.53125,9.25 L 36.375,9.25 L 36.375,10.65625 L 40.21875,10.65625 L 40.21875,9.25 L 39.4375,9.25 L 36.90625,1.65625 L 38.03125,1.65625 L 38.03125,0.21875 L 32.625,0.21875 z M 41.75,0.21875 L 41.75,1.65625 L 42.875,1.65625 L 42.875,9.25 L 41.75,9.25 L 41.75,10.65625 L 49.78125,10.65625 L 49.78125,7.53125 L 48.125,7.53125 L 48.125,9.25 L 44.75,9.25 L 44.75,5.9375 L 47.65625,5.9375 L 47.65625,4.28125 L 44.75,4.28125 L 44.75,1.65625 L 48.125,1.65625 L 48.125,3 L 49.78125,3 L 49.78125,0.21875 L 41.75,0.21875 z M 51.71875,0.21875 L 51.71875,1.65625 L 52.84375,1.65625 L 52.84375,9.25 L 51.71875,9.25 L 51.71875,10.65625 L 55.9375,10.65625 L 55.9375,9.25 L 54.71875,9.25 L 54.71875,5.9375 L 57.84375,5.9375 L 57.84375,4.28125 L 54.71875,4.28125 L 54.71875,1.65625 L 58.21875,1.65625 L 58.21875,3 L 59.875,3 L 59.875,0.21875 L 51.71875,0.21875 z M 61.125,0.21875 L 61.125,1.65625 L 62.25,1.65625 L 62.25,9.25 L 61.125,9.25 L 61.125,10.65625 L 65.34375,10.65625 L 65.34375,9.25 L 64.125,9.25 L 64.125,5.9375 L 67.25,5.9375 L 67.25,4.28125 L 64.125,4.28125 L 64.125,1.65625 L 67.625,1.65625 L 67.625,3 L 69.28125,3 L 69.28125,0.21875 L 61.125,0.21875 z M 70.90625,0.21875 L 70.90625,1.65625 L 72.09375,1.65625 L 72.09375,9.25 L 70.90625,9.25 L 70.90625,10.65625 L 78.09375,10.65625 L 78.09375,7.5625 L 76.4375,7.5625 L 76.4375,9.25 L 73.96875,9.25 L 73.96875,1.65625 L 75.25,1.65625 L 75.25,0.21875 L 70.90625,0.21875 z M 79.15625,0.21875 L 79.15625,1.65625 L 80.25,1.65625 L 80.25,9.25 L 79.15625,9.25 L 79.15625,10.65625 L 87.1875,10.65625 L 87.1875,7.53125 L 85.53125,7.53125 L 85.53125,9.25 L 82.125,9.25 L 82.125,5.9375 L 85.03125,5.9375 L 85.03125,4.28125 L 82.125,4.28125 L 82.125,1.65625 L 85.53125,1.65625 L 85.53125,3 L 87.1875,3 L 87.1875,0.21875 L 79.15625,0.21875 z M 88.84375,0.21875 L 88.84375,1.65625 L 89.96875,1.65625 L 89.96875,9.25 L 88.84375,9.25 L 88.84375,10.65625 L 93,10.65625 L 93,9.25 L 91.84375,9.25 L 91.84375,5.9375 L 92.96875,5.9375 C 93.736253,5.9374999 94.78125,6.02 94.78125,7 L 94.78125,10.65625 L 97.6875,10.65625 L 97.6875,9.25 L 96.65625,9.25 L 96.65625,6.875 C 96.656252,6.2400001 96.55875,5.50625 95.375,5.21875 L 95.375,5.1875 C 96.471247,4.7262502 97,4.0575 97,2.84375 C 97.000001,2.685 97.04,2.01125 96.5625,1.40625 C 95.5825,0.10250001 94.055,0.21875 93.34375,0.21875 L 88.84375,0.21875 z M 115.28125,0.21875 L 115.28125,1.65625 L 116.40625,1.65625 L 116.40625,9.25 L 115.28125,9.25 L 115.28125,10.65625 L 119.4375,10.65625 L 119.4375,9.25 L 118.28125,9.25 L 118.28125,5.9375 L 119.40625,5.9375 C 120.17375,5.9374999 121.21875,6.02 121.21875,7 L 121.21875,10.65625 L 124.125,10.65625 L 124.125,9.25 L 123.09375,9.25 L 123.09375,6.875 C 123.09375,6.2400001 122.9975,5.50625 121.8125,5.21875 L 121.8125,5.1875 C 122.91,4.7262502 123.46875,4.0575 123.46875,2.84375 C 123.46875,2.685 123.47625,2.01125 123,1.40625 C 122.015,0.10250001 120.48625,0.21875 119.78125,0.21875 L 115.28125,0.21875 z M 125.84375,0.21875 L 125.84375,1.65625 L 126.875,1.65625 L 126.875,7.40625 C 126.875,9.6462499 128.61,10.90625 130.71875,10.90625 C 132.35125,10.90625 134.34375,9.93375 134.34375,7.1875 L 134.34375,1.65625 L 135.375,1.65625 L 135.375,0.21875 L 131.3125,0.21875 L 131.3125,1.65625 L 132.46875,1.65625 L 132.46875,6.375 C 132.46875,7.6175 132.65625,9.15625 130.71875,9.15625 C 128.57875,9.1562503 128.75,7.6175 128.75,6.375 L 128.75,1.65625 L 129.875,1.65625 L 129.875,0.21875 L 125.84375,0.21875 z M 137.0625,0.21875 L 137.0625,1.65625 L 138.21875,1.65625 L 138.21875,9.25 L 137.0625,9.25 L 137.0625,10.65625 L 141.4375,10.65625 L 141.4375,9.25 L 140.09375,9.25 L 140.09375,6.8125 L 141.40625,6.8125 C 143.125,6.8125001 145.09375,6.04625 145.09375,3.53125 C 145.09375,1.0462499 143.05375,0.21875 141.03125,0.21875 L 137.0625,0.21875 z M 146.78125,0.21875 L 146.78125,1.65625 L 147.90625,1.65625 L 147.90625,9.25 L 146.78125,9.25 L 146.78125,10.65625 L 151.125,10.65625 L 151.125,9.25 L 149.78125,9.25 L 149.78125,6.8125 L 151.09375,6.8125 C 152.81251,6.8125001 154.78125,6.04625 154.78125,3.53125 C 154.78124,1.0462499 152.74125,0.21875 150.71875,0.21875 L 146.78125,0.21875 z M 156.46875,0.21875 L 156.46875,1.65625 L 157.5625,1.65625 L 157.5625,9.25 L 156.46875,9.25 L 156.46875,10.65625 L 164.5,10.65625 L 164.5,7.53125 L 162.84375,7.53125 L 162.84375,9.25 L 159.46875,9.25 L 159.46875,5.9375 L 162.34375,5.9375 L 162.34375,4.28125 L 159.46875,4.28125 L 159.46875,1.65625 L 162.84375,1.65625 L 162.84375,3 L 164.5,3 L 164.5,0.21875 L 156.46875,0.21875 z M 140.09375,1.625 L 140.53125,1.625 C 140.83125,1.6250001 143.1875,1.36375 143.1875,3.53125 C 143.1875,5.6837499 140.705,5.40625 140.5625,5.40625 L 140.09375,5.40625 L 140.09375,1.625 z M 149.78125,1.625 L 150.21875,1.625 C 150.52125,1.6250001 152.90625,1.36375 152.90625,3.53125 C 152.90625,5.6837499 150.42375,5.40625 150.28125,5.40625 L 149.78125,5.40625 L 149.78125,1.625 z M 91.84375,1.65625 L 92.84375,1.65625 C 93.82375,1.65625 95.15625,1.65375 95.15625,2.9375 C 95.156249,4.3412499 94.10125,4.5 93.0625,4.5 L 91.84375,4.5 L 91.84375,1.65625 z M 118.28125,1.65625 L 119.28125,1.65625 C 120.26375,1.65625 121.5625,1.65375 121.5625,2.9375 C 121.5625,4.3412499 120.54375,4.5 119.5,4.5 L 118.28125,4.5 L 118.28125,1.65625 z M 35.25,2.28125 L 35.28125,2.28125 L 36.4375,5.78125 L 34.0625,5.78125 L 35.25,2.28125 z"
       transform="translate(292.7525,526.91656)"
       id="path2622"
       style="fill:#08954c;fill-opacity:1;fill-rule:nonzero;stroke:none" />
  </g>
</svg>
